<?xml version="1.0" standalone="no"?>
<!DOCTYPE svg PUBLIC "-//W3C//DTD SVG 20010904//EN"
 "http://www.w3.org/TR/2001/REC-SVG-20010904/DTD/svg10.dtd">
<svg version="1.0" xmlns="http://www.w3.org/2000/svg"
 width="350.000000pt" height="146.000000pt" viewBox="0 0 350.000000 146.000000"
 preserveAspectRatio="xMidYMid meet">

<g transform="translate(0.000000,146.000000) scale(0.100000,-0.100000)"
fill="#000000" stroke="none">
<path d="M779 1407 c-73 -21 -136 -63 -164 -110 -50 -87 -43 -142 31 -233 24
-30 41 -54 37 -54 -4 0 -3 -4 2 -9 15 -15 7 -241 -9 -241 -6 0 -28 15 -47 34
-33 31 -35 35 -23 57 29 52 3 121 -58 159 -108 65 -179 -53 -82 -135 l24 -20
-126 -110 c-156 -136 -200 -184 -241 -265 -63 -122 -31 -241 96 -355 39 -35
141 -75 191 -74 117 1 199 95 159 183 -22 47 -106 64 -141 28 -41 -41 6 -107
59 -83 18 8 23 16 18 31 -5 16 -2 20 19 20 32 0 45 -39 26 -78 -8 -15 -13 -31
-11 -35 1 -5 -3 -6 -9 -2 -5 3 -20 -1 -32 -9 -57 -40 -225 12 -280 86 -59 78
-62 205 -7 292 43 70 334 316 372 316 22 0 50 -36 42 -57 -3 -10 -33 -38 -66
-62 -76 -55 -96 -83 -81 -115 6 -13 24 -28 40 -34 28 -10 30 -8 35 18 4 19 25
43 66 74 73 56 95 60 88 14 -3 -18 -8 -42 -11 -53 -5 -15 0 -24 22 -37 26 -16
31 -16 51 -1 22 15 23 20 17 117 -3 55 -8 132 -12 169 -5 57 -4 71 12 88 10
11 24 18 33 17 14 -3 18 -64 25 -370 1 -31 -5 -52 -16 -65 -17 -18 -16 -20 12
-37 29 -16 31 -16 54 1 13 10 26 28 29 41 2 13 2 104 -1 202 -4 159 -3 182 13
206 15 24 22 26 66 22 27 -3 51 -3 54 0 9 9 -29 62 -45 62 -8 0 -1 9 17 21 39
25 90 100 99 145 29 155 -168 291 -347 241z m214 -48 c77 -41 107 -123 73
-202 -18 -42 -92 -112 -138 -132 -33 -13 -37 -13 -32 0 4 8 9 15 13 15 11 0
27 62 23 88 -5 30 -59 64 -91 57 -82 -20 -98 -105 -20 -105 38 0 44 15 18 41
l-22 22 21 8 c28 10 50 2 63 -23 16 -29 -29 -93 -76 -108 -114 -38 -201 81
-147 202 22 50 92 113 149 134 47 16 137 18 166 3z m-455 -436 c-2 -17 -10
-29 -20 -31 -14 -3 -18 3 -18 27 0 25 4 31 21 31 16 0 20 -5 17 -27z"/>
<path d="M1173 859 c-81 -40 -85 -137 -7 -174 31 -14 36 -14 64 0 16 8 30 17
30 18 0 1 -14 2 -30 3 -57 2 -100 67 -80 120 11 27 46 40 65 24 12 -10 18 -10
30 0 35 29 -18 36 -72 9z"/>
<path d="M1311 866 c-15 -9 -20 -16 -12 -20 7 -4 11 -38 11 -87 l0 -79 49 0
c31 0 53 5 61 15 11 13 6 15 -33 15 l-46 0 -3 84 -3 84 -24 -12z"/>
<path d="M1490 868 c-21 -17 -13 -192 8 -179 9 5 12 33 10 100 -3 81 -5 90
-18 79z"/>
<path d="M1740 867 c-11 -9 -14 -28 -12 -70 l3 -58 -66 66 c-65 64 -78 71
-110 59 -14 -6 -13 -8 7 -18 22 -11 23 -17 20 -90 -3 -61 -1 -77 10 -74 8 3
14 25 16 61 2 31 6 57 10 56 4 0 30 -27 57 -59 28 -32 54 -57 60 -56 14 4 26
74 23 138 -3 49 -5 55 -18 45z"/>
<path d="M1823 867 c-16 -9 -20 -16 -13 -27 5 -8 10 -48 10 -87 0 -44 4 -73
10 -73 17 0 21 23 18 113 -3 85 -3 85 -25 74z"/>
<path d="M1973 868 c-38 -10 -83 -61 -83 -93 0 -40 21 -73 56 -90 30 -14 37
-14 61 -2 l27 15 -31 6 c-34 8 -67 39 -78 74 -15 49 25 93 66 71 17 -9 24 -8
36 4 13 12 12 15 -4 19 -10 2 -32 1 -50 -4z"/>
<path d="M1650 590 c0 -13 -7 -20 -19 -20 -22 0 -35 -30 -26 -60 4 -14 14 -19
36 -17 28 2 29 3 29 60 0 31 -4 57 -10 57 -5 0 -10 -9 -10 -20z m-2 -55 c-4
-33 -22 -33 -26 0 -2 18 1 25 13 25 12 0 15 -7 13 -25z"/>
<path d="M2030 591 c0 -13 -8 -21 -22 -23 -19 -2 -23 -9 -23 -38 0 -32 2 -35
29 -35 28 0 30 2 32 52 2 29 -1 55 -6 58 -6 3 -10 -3 -10 -14z m-2 -59 c2 -15
-2 -22 -12 -22 -11 0 -16 9 -16 26 0 31 23 28 28 -4z"/>
<path d="M2430 550 c0 -33 4 -60 10 -60 6 0 10 16 10 35 0 43 27 49 36 8 10
-48 12 -49 13 -5 1 38 -1 42 -24 42 -18 0 -25 5 -25 20 0 11 -4 20 -10 20 -6
0 -10 -27 -10 -60z"/>
<path d="M2528 604 c-12 -11 -10 -114 2 -114 6 0 10 9 10 21 0 21 0 21 20 -2
21 -26 26 -19 9 12 -7 15 -7 24 2 35 8 10 8 14 0 14 -6 0 -15 -8 -19 -17 -5
-13 -8 -7 -12 20 -3 22 -8 35 -12 31z"/>
<path d="M1140 593 c0 -5 -7 -29 -15 -55 -8 -27 -10 -48 -5 -48 6 0 10 7 10
15 0 21 39 19 57 -2 13 -16 14 -15 9 12 -8 50 -25 85 -41 85 -8 0 -15 -3 -15
-7z m29 -55 c1 -5 -6 -8 -14 -8 -16 0 -19 9 -8 36 6 16 7 16 14 -2 4 -10 8
-22 8 -26z"/>
<path d="M2110 545 c0 -30 5 -55 10 -55 6 0 10 9 10 20 0 11 4 20 9 20 5 0 17
7 25 16 22 21 4 54 -29 54 -24 0 -25 -3 -25 -55z m48 22 c2 -10 -3 -17 -12
-17 -10 0 -16 9 -16 21 0 24 23 21 28 -4z"/>
<path d="M3006 578 c-29 -45 13 -113 48 -78 8 8 7 10 -6 5 -13 -5 -21 0 -30
20 -14 31 -1 61 26 59 9 -1 16 2 16 7 0 18 -40 8 -54 -13z"/>
<path d="M3258 578 c-7 -23 7 -81 21 -86 10 -3 11 0 5 9 -11 18 -11 52 -1 60
4 3 2 11 -6 18 -11 9 -16 9 -19 -1z"/>
<path d="M1226 528 c8 -23 12 -48 10 -55 -3 -7 -2 -13 3 -13 4 0 15 25 23 55
8 30 12 55 8 55 -4 0 -11 -12 -15 -27 l-7 -28 -10 28 c-5 15 -14 27 -18 27 -5
0 -2 -19 6 -42z"/>
<path d="M1294 542 c4 -41 13 -52 41 -50 22 2 25 7 24 43 -2 28 -3 32 -6 13
-2 -14 -11 -32 -19 -38 -15 -13 -16 -11 -18 34 -1 11 -7 21 -13 23 -9 3 -12
-5 -9 -25z"/>
<path d="M1386 560 c-1 -3 1 -21 5 -40 l6 -35 2 32 c0 19 8 36 19 42 15 9 14
10 -6 8 -13 -1 -25 -4 -26 -7z"/>
<path d="M1444 553 c2 -10 7 -28 11 -40 3 -13 11 -23 16 -23 12 0 31 49 26 69
-2 9 -8 1 -14 -19 l-11 -35 -7 33 c-4 17 -12 32 -17 32 -5 0 -7 -8 -4 -17z"/>
<path d="M1527 563 c-4 -3 -7 -19 -7 -34 0 -27 16 -40 48 -38 10 1 7 4 -7 8
-33 9 -39 31 -8 31 29 0 37 7 30 26 -5 14 -44 19 -56 7z m43 -13 c0 -5 -9 -10
-21 -10 -11 0 -17 5 -14 10 3 6 13 10 21 10 8 0 14 -4 14 -10z"/>
<path d="M1718 563 c12 -2 22 -8 22 -13 0 -5 -10 -10 -22 -12 -35 -5 -31 -43
5 -44 25 -1 27 2 27 37 0 36 -2 39 -27 38 -24 -2 -25 -2 -5 -6z m22 -42 c0
-14 -18 -23 -30 -16 -6 4 -8 11 -5 16 8 12 35 12 35 0z"/>
<path d="M1840 558 l25 -10 -28 -10 c-36 -13 -33 -43 6 -44 25 -1 27 2 27 37
0 36 -2 39 -27 38 l-28 0 25 -11z m18 -40 c-6 -18 -28 -21 -28 -4 0 9 7 16 16
16 9 0 14 -5 12 -12z"/>
<path d="M1890 530 c0 -22 5 -40 10 -40 6 0 10 13 10 29 0 28 15 49 27 38 3
-4 9 -21 13 -39 8 -33 8 -33 9 10 1 42 1 42 -34 42 -34 0 -35 -1 -35 -40z"/>
<path d="M2213 563 c34 -5 35 -19 1 -27 -35 -9 -29 -41 9 -42 25 -1 27 2 27
37 0 38 -1 39 -32 38 -31 -2 -31 -2 -5 -6z m25 -45 c-6 -18 -28 -21 -28 -4 0
9 7 16 16 16 9 0 14 -5 12 -12z"/>
<path d="M2281 525 l2 -40 6 34 c8 48 31 53 31 7 0 -20 5 -36 10 -36 6 0 10
18 10 40 0 39 -1 40 -30 38 -28 -2 -30 -5 -29 -43z"/>
<path d="M2366 544 c-10 -38 30 -75 48 -45 3 5 -2 8 -12 7 -28 -2 -28 42 0 53
23 10 23 10 -3 10 -21 1 -28 -5 -33 -25z"/>
<path d="M2630 559 l25 -12 -25 -6 c-36 -10 -34 -46 3 -47 26 -1 28 1 25 35
-3 30 -7 36 -28 38 l-25 3 25 -11z m10 -44 c0 -8 -4 -15 -10 -15 -5 0 -10 7
-10 15 0 8 5 15 10 15 6 0 10 -7 10 -15z"/>
<path d="M2680 530 c0 -22 5 -40 10 -40 6 0 10 13 10 30 0 17 7 33 18 39 14 9
13 10 -10 11 -26 0 -28 -3 -28 -40z"/>
<path d="M2743 529 c0 -47 14 -52 19 -7 4 46 28 49 28 4 0 -20 5 -36 10 -36 6
0 10 16 10 35 0 19 4 35 9 35 5 0 12 -16 15 -35 8 -42 26 -46 26 -6 0 38 -16
49 -71 48 l-46 0 0 -38z"/>
<path d="M2898 563 c27 -5 29 -23 2 -23 -15 0 -20 -7 -20 -25 0 -20 4 -24 25
-23 22 2 25 7 25 40 0 35 -2 38 -27 37 -24 -2 -25 -2 -5 -6z m20 -45 c-6 -18
-28 -21 -28 -4 0 9 7 16 16 16 9 0 14 -5 12 -12z"/>
<path d="M3084 556 c-3 -8 -4 -25 -2 -38 2 -18 10 -23 33 -25 27 -2 28 -1 6 5
-38 12 -38 32 -1 32 25 0 31 3 26 16 -3 9 -6 18 -6 20 0 11 -51 2 -56 -10z
m46 -6 c0 -5 -9 -10 -21 -10 -11 0 -17 5 -14 10 3 6 13 10 21 10 8 0 14 -4 14
-10z"/>
<path d="M3171 526 l2 -41 6 34 c8 48 31 53 31 7 0 -20 5 -36 11 -36 6 0 9 16
7 38 -3 33 -6 37 -30 38 -26 1 -28 -1 -27 -40z"/>
<path d="M3314 556 c-16 -41 20 -86 47 -59 6 6 1 9 -12 9 -12 -1 -24 5 -26 12
-3 8 6 12 26 12 33 0 39 8 19 28 -16 16 -47 15 -54 -2z m41 -6 c3 -5 -3 -10
-15 -10 -12 0 -18 5 -15 10 3 6 10 10 15 10 5 0 12 -4 15 -10z"/>
<path d="M3401 528 c2 -34 3 -37 6 -13 2 17 12 36 21 43 14 11 13 12 -6 12
-19 0 -22 -5 -21 -42z"/>
</g>
</svg>
